nColumns=28
nRows=40
DataType=double
version=3
OpenSimVersion=4.1
endheader
time	ground_force_1_vx	ground_force_1_vy	ground_force_1_vz	ground_force_1_px	ground_force_1_py	ground_force_1_pz	ground_force_1_mx	ground_force_1_my	ground_force_1_mz	ground_force_2_vx	ground_force_2_vy	ground_force_2_vz	ground_force_2_px	ground_force_2_py	ground_force_2_pz	ground_force_2_mx	ground_force_2_my	ground_force_2_mz	ground_force_3_vx	ground_force_3_vy	ground_force_3_vz	ground_force_3_px	ground_force_3_py	ground_force_3_pz	ground_force_3_mx	ground_force_3_my	ground_force_3_mz
3.25	9.77356	277.679	-68.1906	-0.251857	0.006	-0.443156	0	-0.822008	0	7.6093	306.786	65.1604	-0.252171	0.006	-0.910765	0	1.74323	0	0	0	0	0	0	0	0	0	0
3.26	9.27324	279.584	-67.3482	-0.251471	0.006	-0.443704	0	-1.11478	0	6.43793	309.133	64.2959	-0.251012	0.006	-0.910812	0	1.98002	0	0	0	0	0	0	0	0	0	0
3.27	8.96245	281.936	-66.2949	-0.251445	0.006	-0.444407	0	-1.4351	0	5.38999	311.707	63.1097	-0.250045	0.006	-0.910685	0	2.22884	0	0	0	0	0	0	0	0	0	0
3.28	8.83932	284.685	-64.9953	-0.251716	0.006	-0.44525	0	-1.77229	0	4.50135	314.381	61.5779	-0.24925	0.006	-0.910402	0	2.4826	0	0	0	0	0	0	0	0	0	0
3.29	8.8833	287.768	-63.4265	-0.252203	0.006	-0.446208	0	-2.11398	0	3.79318	317.033	59.6928	-0.248598	0.006	-0.909986	0	2.73385	0	0	0	0	0	0	0	0	0	0
3.3	9.05852	291.114	-61.5788	-0.252818	0.006	-0.447252	0	-2.44732	0	3.27133	319.586	57.4639	-0.248054	0.006	-0.909467	0	2.97567	0	0	0	0	0	0	0	0	0	0
3.31	9.3227	294.649	-59.4517	-0.253476	0.006	-0.44835	0	-2.76041	0	2.92736	322.022	54.9175	-0.247579	0.006	-0.908874	0	3.20235	0	0	0	0	0	0	0	0	0	0
3.32	9.63595	298.288	-57.053	-0.254099	0.006	-0.44947	0	-3.0435	0	2.7429	324.369	52.0959	-0.247133	0.006	-0.908239	0	3.4101	0	0	0	0	0	0	0	0	0	0
3.33	9.96506	301.931	-54.398	-0.254624	0.006	-0.450584	0	-3.28983	0	2.69525	326.672	49.0553	-0.246684	0.006	-0.90759	0	3.59786	0	0	0	0	0	0	0	0	0	0
3.34	10.2823	305.471	-51.5099	-0.254997	0.006	-0.451666	0	-3.49605	0	2.75649	328.968	45.8646	-0.246204	0.006	-0.906955	0	3.7676	0	0	0	0	0	0	0	0	0	0
3.35	10.5589	308.809	-48.4234	-0.255179	0.006	-0.452695	0	-3.66227	0	2.88718	331.29	42.6028	-0.245667	0.006	-0.906357	0	3.92343	0	0	0	0	0	0	0	0	0	0
3.36	10.7628	311.878	-45.187	-0.25514	0.006	-0.453654	0	-3.79166	0	3.03667	333.671	39.3529	-0.24505	0.006	-0.905819	0	4.07061	0	0	0	0	0	0	0	0	0	0
3.37	10.86	314.658	-41.8607	-0.254861	0.006	-0.454531	0	-3.88982	0	3.15102	336.16	36.1954	-0.244334	0.006	-0.905355	0	4.2146	0	0	0	0	0	0	0	0	0	0
3.38	10.8188	317.171	-38.5111	-0.254331	0.006	-0.455315	0	-3.96394	0	3.18115	338.815	33.2034	-0.243502	0.006	-0.904979	0	4.3604	0	0	0	0	0	0	0	0	0	0
3.39	10.6137	319.467	-35.2023	-0.253552	0.006	-0.456	0	-4.02165	0	3.08862	341.702	30.437	-0.242549	0.006	-0.904694	0	4.51203	0	0	0	0	0	0	0	0	0	0
3.4	10.2336	321.597	-31.987	-0.252535	0.006	-0.456587	0	-4.07017	0	2.85053	344.887	27.9377	-0.241476	0.006	-0.904501	0	4.67208	0	0	0	0	0	0	0	0	0	0
3.41	9.68378	323.607	-28.9007	-0.251302	0.006	-0.457079	0	-4.11555	0	2.46069	348.426	25.7261	-0.240292	0.006	-0.90439	0	4.84138	0	0	0	0	0	0	0	0	0	0
3.42	8.98223	325.534	-25.9619	-0.249882	0.006	-0.457485	0	-4.16233	0	1.92565	352.36	23.8025	-0.239014	0.006	-0.904351	0	5.01901	0	0	0	0	0	0	0	0	0	0
3.43	8.15488	327.403	-23.174	-0.248308	0.006	-0.457815	0	-4.21346	0	1.26001	356.697	22.1513	-0.237657	0.006	-0.904369	0	5.20244	0	0	0	0	0	0	0	0	0	0
3.44	7.23326	329.229	-20.5308	-0.246612	0.006	-0.458083	0	-4.27037	0	0.483964	361.402	20.7439	-0.236242	0.006	-0.904429	0	5.38782	0	0	0	0	0	0	0	0	0	0
3.45	6.25418	331	-18.02	-0.244831	0.006	-0.458302	0	-4.33301	0	-0.37634	366.408	19.5395	-0.234786	0.006	-0.904513	0	5.57056	0	0	0	0	0	0	0	0	0	0
3.46	5.26047	332.684	-15.6251	-0.242997	0.006	-0.458484	0	-4.40002	0	-1.28913	371.637	18.4886	-0.233309	0.006	-0.904606	0	5.74611	0	0	0	0	0	0	0	0	0	0
3.47	4.29965	334.234	-13.3286	-0.241141	0.006	-0.458643	0	-4.46952	0	-2.22015	377.014	17.5393	-0.231827	0.006	-0.904692	0	5.91065	0	0	0	0	0	0	0	0	0	0
3.48	3.41751	335.614	-11.1164	-0.23929	0.006	-0.458785	0	-4.53975	0	-3.13461	382.475	16.6447	-0.230356	0.006	-0.90476	0	6.06142	0	0	0	0	0	0	0	0	0	0
3.49	2.64961	336.807	-8.98223	-0.237465	0.006	-0.458917	0	-4.60952	0	-3.99729	387.961	15.7697	-0.228911	0.006	-0.904803	0	6.19683	0	0	0	0	0	0	0	0	0	0
3.5	2.01555	337.811	-6.93036	-0.235679	0.006	-0.459037	0	-4.67847	0	-4.77688	393.42	14.8958	-0.227503	0.006	-0.90482	0	6.31652	0	0	0	0	0	0	0	0	0	0
3.51	1.51605	338.64	-4.97633	-0.233937	0.006	-0.459141	0	-4.74703	0	-5.45275	398.8	14.0228	-0.226137	0.006	-0.904816	0	6.42126	0	0	0	0	0	0	0	0	0	0
3.52	1.13427	339.327	-3.14649	-0.23224	0.006	-0.459222	0	-4.81633	0	-6.01643	404.047	13.1652	-0.224816	0.006	-0.904799	0	6.51261	0	0	0	0	0	0	0	0	0	0
3.53	0.840404	339.923	-1.47547	-0.230582	0.006	-0.459271	0	-4.888	0	-6.46569	409.092	12.3464	-0.223542	0.006	-0.904781	0	6.59239	0	0	0	0	0	0	0	0	0	0
3.54	0.597569	340.486	-0.00189542	-0.228959	0.006	-0.459276	0	-4.96375	0	-6.79867	413.844	11.5938	-0.222314	0.006	-0.904774	0	6.66215	0	0	0	0	0	0	0	0	0	0
3.55	0.366779	341.067	1.2367	-0.227364	0.006	-0.459228	0	-5.04474	0	-7.01313	418.202	10.9343	-0.221133	0.006	-0.90479	0	6.72303	0	0	0	0	0	0	0	0	0	0
3.56	0.110864	341.691	2.20785	-0.225793	0.006	-0.459116	0	-5.13116	0	-7.10898	422.07	10.3927	-0.219996	0.006	-0.904838	0	6.77586	0	0	0	0	0	0	0	0	0	0
3.57	-0.201757	342.379	2.88596	-0.224241	0.006	-0.458935	0	-5.22235	0	-7.09095	425.37	9.98932	-0.218901	0.006	-0.904926	0	6.82121	0	0	0	0	0	0	0	0	0	0
3.58	-0.594967	343.148	3.25196	-0.222709	0.006	-0.458682	0	-5.31713	0	-6.96919	428.051	9.74067	-0.217843	0.006	-0.905056	0	6.85936	0	0	0	0	0	0	0	0	0	0
3.59	-1.08606	344.019	3.29215	-0.221197	0.006	-0.458358	0	-5.41398	0	-6.75939	430.09	9.66049	-0.216821	0.006	-0.905228	0	6.89031	0	0	0	0	0	0	0	0	0	0
3.6	-1.68716	345.009	2.99748	-0.219708	0.006	-0.457967	0	-5.51122	0	-6.48356	431.501	9.76139	-0.215829	0.006	-0.905444	0	6.91388	0	0	0	0	0	0	0	0	0	0
3.61	-2.40426	346.127	2.36415	-0.218246	0.006	-0.457516	0	-5.60701	0	-6.16833	432.322	10.0544	-0.214864	0.006	-0.905698	0	6.92971	0	0	0	0	0	0	0	0	0	0
3.62	-3.23555	347.366	1.39322	-0.216813	0.006	-0.457011	0	-5.69941	0	-5.84048	432.614	10.5487	-0.213921	0.006	-0.905989	0	6.93737	0	0	0	0	0	0	0	0	0	0
3.63	-4.17089	348.705	0.0897199	-0.215415	0.006	-0.456462	0	-5.78636	0	-5.5215	432.444	11.253	-0.212997	0.006	-0.906313	0	6.9363	0	0	0	0	0	0	0	0	0	0
3.64	-5.19154	350.102	-1.53745	-0.214057	0.006	-0.455878	0	-5.86573	0	-5.22421	431.875	12.1775	-0.212094	0.006	-0.906665	0	6.92589	0	0	0	0	0	0	0	0	0	0
